<svg xmlns="http://www.w3.org/2000/svg" xmlns:xlink="http://www.w3.org/1999/xlink" viewBox="0 0 50 50"><defs><style>.cls-1{fill:none;}.cls-2{clip-path:url(#clip-path);}.cls-3{fill:#fff;}</style><clipPath id="clip-path"><path class="cls-1" d="M47.5,8.48v33l-.09.34a6.68,6.68,0,0,1-4.7,5.35,11.48,11.48,0,0,1-1.19.29h-33l-.25-.08A6.74,6.74,0,0,1,2.5,40.76q0-15.76,0-31.55a6.7,6.7,0,0,1,6.71-6.7H40.77a6.74,6.74,0,0,1,6.5,5C47.36,7.83,47.43,8.15,47.5,8.48ZM25,7.86H14.61a6.6,6.6,0,0,0-6.75,6.76V35.4a6.59,6.59,0,0,0,6.76,6.74H35.35a6.59,6.59,0,0,0,6.79-6.8V14.65a6.59,6.59,0,0,0-6.8-6.79Z"/></clipPath></defs><title>CV-08</title><g id="Capa_2" data-name="Capa 2"><g class="cls-2"><rect class="cls-3" x="2.38" y="2.02" width="45" height="45" rx="15.22"/></g><path class="cls-3" d="M25,38.88H15.15a3.8,3.8,0,0,1-4-4V15.17a3.79,3.79,0,0,1,4-4H34.81a3.8,3.8,0,0,1,4.07,4.07V34.79a3.81,3.81,0,0,1-4.1,4.09ZM33.83,25A8.83,8.83,0,1,0,25,33.83,8.84,8.84,0,0,0,33.83,25Zm2.52-8.85a2.52,2.52,0,1,0-2.5,2.53A2.53,2.53,0,0,0,36.35,16.16Z"/><path class="cls-3" d="M30.59,25A5.59,5.59,0,1,1,25,19.42,5.6,5.6,0,0,1,30.59,25Z"/></g></svg>