<svg xmlns="http://www.w3.org/2000/svg" xmlns:xlink="http://www.w3.org/1999/xlink" viewBox="0 0 50 50"><defs><style>.cls-1{fill:none;}.cls-2{clip-path:url(#clip-path);}.cls-3{fill:#fff;}</style><clipPath id="clip-path"><path class="cls-1" d="M47,48H3a1.74,1.74,0,0,1-1-1.81Q2,25,2,3.72C2,2.48,2.48,2,3.72,2Q25,2,46.19,2A1.74,1.74,0,0,1,48,3V47A2,2,0,0,1,47,48ZM5.85,25A19.16,19.16,0,1,0,25,5.85,19.17,19.17,0,0,0,5.85,25Z"/></clipPath></defs><title>CV-08</title><g id="Capa_2" data-name="Capa 2"><g class="cls-2"><rect class="cls-3" x="1.88" y="2.02" width="45.99" height="45.99" rx="15.22"/></g><path class="cls-3" d="M41.47,25A16.47,16.47,0,1,1,25,8.54,16.47,16.47,0,0,1,41.47,25Zm-18.69.39A3.07,3.07,0,0,0,24,24.32a3.58,3.58,0,0,0-1.59-5,6,6,0,0,0-2.32-.44c-2.12,0-4.25,0-6.37,0-.34,0-.43.09-.43.43q0,6.65,0,13.28c0,.35.11.43.43.42,2,0,4.07,0,6.11,0a8.43,8.43,0,0,0,1.87-.2,4,4,0,0,0,3.12-3.31c.24-1.72-.26-3.3-2-4C22.82,25.49,22.81,25.45,22.78,25.4Zm10.11,3.17h0c1.13,0,2.27,0,3.41,0,.34,0,.45-.1.43-.43s0-.87-.06-1.3a4.72,4.72,0,0,0-3.76-4.41,7,7,0,0,0-1.83-.12,4.74,4.74,0,0,0-4.35,3.2,7.81,7.81,0,0,0-.25,3.81,4.26,4.26,0,0,0,1.71,2.94,6,6,0,0,0,5.35.83,4.35,4.35,0,0,0,2.94-2.68c.13-.32.09-.48-.33-.46-.67,0-1.35,0-2,0a.51.51,0,0,0-.48.24,2.41,2.41,0,0,1-2.8.85,2.35,2.35,0,0,1-1.71-2.13c0-.28.06-.36.33-.35Zm-1.51-9.24c.69,0,1.37,0,2.06,0A1.38,1.38,0,0,0,34.87,18a1.35,1.35,0,0,0-1.44-1.34c-1.37,0-2.74,0-4.12,0A1.33,1.33,0,0,0,27.87,18a1.35,1.35,0,0,0,1.45,1.37C30,19.34,30.69,19.33,31.38,19.33Z"/><path class="cls-3" d="M18.31,30.57c-.71,0-1.3,0-1.88,0-.26,0-.33-.08-.33-.33,0-1.05,0-2.1,0-3.14,0-.15,0-.31.21-.31,1.35,0,2.7-.09,4,.08a1.54,1.54,0,0,1,1.52,1.66,1.73,1.73,0,0,1-1.5,2A13.54,13.54,0,0,1,18.31,30.57Z"/><path class="cls-3" d="M18.28,24.47H16.39c-.21,0-.29-.06-.29-.28,0-.85,0-1.7,0-2.55,0-.2,0-.3.27-.3,1.25,0,2.51-.06,3.76.08,1.07.11,1.49.59,1.45,1.59a1.35,1.35,0,0,1-1.22,1.37A12.8,12.8,0,0,1,18.28,24.47Z"/><path class="cls-3" d="M31.54,26.77h-2c-.22,0-.34,0-.3-.29a2.23,2.23,0,0,1,2.2-1.92,2.19,2.19,0,0,1,2.4,1.8c.07.32,0,.43-.32.42C32.85,26.76,32.2,26.77,31.54,26.77Z"/></g></svg>