<svg xmlns="http://www.w3.org/2000/svg" xmlns:xlink="http://www.w3.org/1999/xlink" viewBox="0 0 50 50"><defs><style>.cls-1{fill:none;}.cls-2{clip-path:url(#clip-path);}.cls-3{fill:#fff;}</style><clipPath id="clip-path"><path class="cls-1" d="M43.63,47.5H6.37a.84.84,0,0,0-.2-.08,4.57,4.57,0,0,1-2.64-1.59,5.56,5.56,0,0,1-1-2.2V6.37a1.09,1.09,0,0,0,.08-.15A4.51,4.51,0,0,1,7.14,2.5H42.86a5,5,0,0,1,1.22.14A4.54,4.54,0,0,1,47.5,7.18V42.82c0,.13,0,.26,0,.39A4.47,4.47,0,0,1,46,46.36,5.41,5.41,0,0,1,43.63,47.5ZM27.25,23c0-.68,0-1.37,0-2.06,0-.32-.05-.45-.43-.45-2,0-3.95,0-5.93,0-.34,0-.4.11-.4.42q0,9.72,0,19.43c0,.34.11.4.42.4,2,0,3.93,0,5.89,0,.38,0,.45-.12.45-.47,0-3.68,0-7.35,0-11,0-.28,0-.56,0-.83a3.37,3.37,0,0,1,4.79-2.6A3.43,3.43,0,0,1,34,29.07c0,3.72,0,7.44,0,11.16,0,.39.07.53.49.52,1.94,0,3.87,0,5.8,0,.35,0,.47-.07.47-.45q0-6.11,0-12.21a7.7,7.7,0,0,0-3.4-6.59,6.9,6.9,0,0,0-8.1-.25A10.65,10.65,0,0,0,27.25,23Zm-18,7.62c0,3.23,0,6.47,0,9.7,0,.33.08.42.41.42,2,0,4,0,5.93,0,.33,0,.42-.09.42-.42q0-9.7,0-19.41c0-.33-.09-.42-.42-.42q-2.94,0-5.88,0c-.37,0-.46.1-.46.46Q9.27,25.79,9.26,30.63Zm7.4-18a4,4,0,1,0-4.06,4A4,4,0,0,0,16.66,12.64Z"/></clipPath></defs><title>CV-08</title><g id="Capa_2" data-name="Capa 2"><g class="cls-2"><rect class="cls-3" x="2.5" y="2.5" width="45" height="45" rx="14.29"/></g></g></svg>