<?xml version="1.0" encoding="utf-8"?>
<!-- Generator: Adobe Illustrator 23.0.6, SVG Export Plug-In . SVG Version: 6.00 Build 0)  -->
<svg version="1.1" xmlns="http://www.w3.org/2000/svg" xmlns:xlink="http://www.w3.org/1999/xlink" x="0px" y="0px"
	 viewBox="0 0 20 20" style="enable-background:new 0 0 20 20;" xml:space="preserve">
<style type="text/css">
	.st0{clip-path:url(#SVGID_2_);}
	.st1{clip-path:url(#SVGID_4_);}
	.st2{fill:#580859;}
	.st3{clip-path:url(#SVGID_8_);}
	.st4{clip-path:url(#SVGID_10_);}
	.st5{clip-path:url(#SVGID_14_);}
	.st6{clip-path:url(#SVGID_16_);}
	.st7{clip-path:url(#SVGID_20_);}
	.st8{clip-path:url(#SVGID_24_);}
	.st9{opacity:0.5;}
	.st10{fill:#FFFFFF;}
	.st11{fill:none;}
	.st12{fill:none;stroke:#000000;stroke-miterlimit:10;}
	.st13{fill:none;stroke:#580859;stroke-width:2;stroke-miterlimit:10;}
	.st14{opacity:0.8;}
	.st15{fill:none;stroke:#FFFFFF;stroke-miterlimit:10;}
	.st16{clip-path:url(#SVGID_42_);}
	.st17{clip-path:url(#SVGID_44_);}
	.st18{clip-path:url(#SVGID_46_);}
	.st19{clip-path:url(#SVGID_48_);}
	.st20{clip-path:url(#SVGID_50_);}
	.st21{clip-path:url(#SVGID_52_);}
	.st22{clip-path:url(#SVGID_54_);}
	.st23{clip-path:url(#SVGID_56_);}
	.st24{clip-path:url(#SVGID_58_);}
</style>
<g id="Capa_1">
</g>
<g id="Capa_2">
	<g>
		<g>
			<defs>
				<path id="SVGID_57_" d="M19.42,3.08c0,4.61,0,9.23,0,13.84c-0.01,0.05-0.03,0.09-0.04,0.14c-0.22,1.13-0.89,1.87-1.97,2.24
					c-0.16,0.06-0.33,0.08-0.5,0.12c-4.61,0-9.23,0-13.84,0c-0.03-0.01-0.07-0.03-0.1-0.03c-1.38-0.22-2.4-1.39-2.4-2.79
					c0-4.4,0-8.81,0-13.21c0-1.55,1.26-2.81,2.81-2.81c4.4,0,8.81,0,13.21,0c1.28,0,2.39,0.86,2.73,2.09
					C19.37,2.81,19.39,2.94,19.42,3.08z M10.01,2.82c-1.45,0-2.91,0-4.36,0c-1.62,0-2.82,1.21-2.82,2.83c0,2.9,0,5.8,0,8.7
					c0,1.62,1.21,2.82,2.83,2.82c2.89,0,5.79,0,8.68,0c1.64,0,2.84-1.2,2.84-2.85c0-2.89,0-5.78,0-8.67c0-1.64-1.2-2.84-2.85-2.84
					C12.89,2.82,11.45,2.82,10.01,2.82z"/>
			</defs>
			<clipPath id="SVGID_2_">
				<use xlink:href="#SVGID_57_"  style="overflow:visible;"/>
			</clipPath>
			<g class="st0">
				<path class="st10" d="M13,19.22H6.9c-3.52,0-6.37-2.85-6.37-6.37v-6.1c0-3.52,2.85-6.37,6.37-6.37H13
					c3.52,0,6.37,2.85,6.37,6.37v6.1C19.37,16.37,16.52,19.22,13,19.22z"/>
			</g>
		</g>
		<path class="st10" d="M9.99,15.81c-1.37,0-2.75,0-4.12,0c-1.01,0-1.68-0.67-1.68-1.69c0-2.75,0-5.49,0-8.24
			c0-1.03,0.67-1.69,1.7-1.69c2.74,0,5.48,0,8.22,0c1.04,0,1.7,0.66,1.7,1.71c0,2.73,0,5.47,0,8.2c0,1.05-0.66,1.71-1.72,1.71
			C12.73,15.81,11.36,15.81,9.99,15.81z M13.7,10.01c0-2.04-1.65-3.7-3.69-3.7c-2.04,0-3.7,1.65-3.71,3.68
			C6.3,12.03,7.96,13.7,10,13.7C12.03,13.7,13.7,12.04,13.7,10.01z M14.75,6.3c0-0.58-0.48-1.05-1.06-1.05
			c-0.58,0-1.05,0.47-1.06,1.05c0,0.59,0.48,1.06,1.07,1.06C14.29,7.35,14.76,6.88,14.75,6.3z"/>
		<path class="st10" d="M12.34,10c0,1.29-1.05,2.34-2.34,2.34c-1.29,0-2.34-1.05-2.34-2.34c0-1.29,1.05-2.34,2.34-2.34
			C11.29,7.66,12.34,8.71,12.34,10z"/>
	</g>
</g>
</svg>
