<?xml version="1.0" encoding="utf-8"?>
<!-- Generator: Adobe Illustrator 23.0.6, SVG Export Plug-In . SVG Version: 6.00 Build 0)  -->
<svg version="1.1" xmlns="http://www.w3.org/2000/svg" xmlns:xlink="http://www.w3.org/1999/xlink" x="0px" y="0px"
	 viewBox="0 0 20 20" style="enable-background:new 0 0 20 20;" xml:space="preserve">
<style type="text/css">
	.st0{clip-path:url(#SVGID_2_);}
	.st1{clip-path:url(#SVGID_4_);}
	.st2{fill:#580859;}
	.st3{clip-path:url(#SVGID_8_);}
	.st4{clip-path:url(#SVGID_10_);}
	.st5{clip-path:url(#SVGID_14_);}
	.st6{clip-path:url(#SVGID_16_);}
	.st7{clip-path:url(#SVGID_20_);}
	.st8{clip-path:url(#SVGID_24_);}
	.st9{opacity:0.5;}
	.st10{fill:#FFFFFF;}
	.st11{fill:none;}
	.st12{fill:none;stroke:#000000;stroke-miterlimit:10;}
	.st13{fill:none;stroke:#580859;stroke-width:2;stroke-miterlimit:10;}
	.st14{opacity:0.8;}
	.st15{fill:none;stroke:#FFFFFF;stroke-miterlimit:10;}
	.st16{clip-path:url(#SVGID_42_);}
	.st17{clip-path:url(#SVGID_44_);}
	.st18{clip-path:url(#SVGID_46_);}
	.st19{clip-path:url(#SVGID_48_);}
	.st20{clip-path:url(#SVGID_50_);}
	.st21{clip-path:url(#SVGID_52_);}
	.st22{clip-path:url(#SVGID_54_);}
	.st23{clip-path:url(#SVGID_56_);}
	.st24{clip-path:url(#SVGID_58_);}
</style>
<g id="Capa_1">
</g>
<g id="Capa_2">
	<g>
		<g>
			<defs>
				<path id="SVGID_55_" d="M19.22,19.63c-6.14,0-12.29,0-18.43,0c-0.33-0.15-0.42-0.41-0.42-0.76c0.01-5.93,0-11.86,0.01-17.79
					c0-0.52,0.2-0.71,0.71-0.71c5.93,0,11.86,0,17.79,0c0.35,0,0.61,0.09,0.76,0.42c0,6.14,0,12.29,0,18.43
					C19.54,19.41,19.4,19.54,19.22,19.63z M1.98,9.99c-0.01,4.41,3.57,8.01,8,8.03c4.42,0.02,8.02-3.56,8.05-8
					c0.03-4.41-3.57-8.03-8.01-8.04C5.59,1.97,1.99,5.55,1.98,9.99z"/>
			</defs>
			<clipPath id="SVGID_2_">
				<use xlink:href="#SVGID_55_"  style="overflow:visible;"/>
			</clipPath>
			<g class="st0">
				<path class="st10" d="M13.2,19.64H6.69c-3.52,0-6.37-2.85-6.37-6.37V6.75c0-3.52,2.85-6.37,6.37-6.37h6.51
					c3.52,0,6.37,2.85,6.37,6.37v6.51C19.58,16.78,16.72,19.64,13.2,19.64z"/>
			</g>
		</g>
		<path class="st10" d="M16.9,10c0,3.81-3.1,6.9-6.91,6.9c-3.8-0.01-6.89-3.1-6.89-6.9c0-3.81,3.1-6.9,6.91-6.89
			C13.82,3.11,16.9,6.2,16.9,10z M9.07,10.17c0.2-0.11,0.39-0.25,0.51-0.45c0.43-0.73,0.11-1.75-0.67-2.09
			C8.6,7.49,8.27,7.45,7.94,7.45c-0.89,0-1.78,0-2.67,0c-0.14,0-0.18,0.04-0.18,0.18c0,1.85,0,3.71,0,5.56
			c0,0.14,0.05,0.18,0.18,0.18c0.85-0.01,1.7,0,2.56,0c0.26,0,0.53-0.02,0.78-0.08c0.68-0.15,1.21-0.7,1.31-1.39
			c0.1-0.72-0.11-1.38-0.82-1.68C9.09,10.2,9.08,10.19,9.07,10.17z M13.3,11.5C13.3,11.5,13.3,11.5,13.3,11.5c0.48,0,0.95,0,1.43,0
			c0.14,0,0.19-0.04,0.18-0.18c-0.01-0.18-0.01-0.36-0.02-0.54c-0.07-0.94-0.67-1.64-1.58-1.85c-0.25-0.06-0.51-0.07-0.77-0.05
			c-0.85,0.04-1.56,0.56-1.82,1.34c-0.18,0.52-0.19,1.06-0.1,1.6c0.08,0.5,0.29,0.93,0.72,1.23c0.69,0.49,1.44,0.57,2.24,0.35
			c0.59-0.17,1-0.55,1.23-1.12c0.05-0.13,0.04-0.2-0.14-0.19c-0.28,0.01-0.56,0.01-0.85,0c-0.09,0-0.15,0.02-0.2,0.1
			c-0.26,0.37-0.68,0.49-1.17,0.36c-0.41-0.12-0.68-0.45-0.72-0.89c-0.01-0.12,0.03-0.15,0.14-0.15C12.35,11.5,12.83,11.5,13.3,11.5
			z M12.67,7.63c0.29,0,0.58,0,0.86,0c0.34-0.01,0.6-0.25,0.6-0.57c0-0.32-0.25-0.56-0.6-0.56c-0.58,0-1.15,0-1.73,0
			c-0.36,0-0.6,0.23-0.6,0.55c0,0.33,0.24,0.57,0.61,0.57C12.1,7.63,12.38,7.63,12.67,7.63z"/>
		<path class="st10" d="M7.2,12.33c-0.3,0-0.54-0.01-0.79,0c-0.11,0-0.14-0.03-0.14-0.14c0.01-0.44,0-0.88,0-1.32
			c0-0.06-0.01-0.13,0.09-0.13c0.56,0.02,1.13-0.04,1.69,0.03c0.43,0.06,0.64,0.29,0.64,0.7c0,0.47-0.2,0.74-0.63,0.82
			C7.76,12.36,7.45,12.32,7.2,12.33z"/>
		<path class="st10" d="M7.18,9.78c-0.3,0-0.55,0-0.79,0c-0.09,0-0.12-0.03-0.12-0.12c0-0.36,0-0.71,0-1.07
			c0-0.08,0.02-0.13,0.11-0.12C6.91,8.48,7.44,8.44,7.96,8.5c0.45,0.05,0.63,0.25,0.61,0.67C8.56,9.48,8.4,9.67,8.06,9.74
			C7.75,9.81,7.44,9.76,7.18,9.78z"/>
		<path class="st10" d="M12.74,10.74c-0.28,0-0.56,0-0.84,0c-0.09,0-0.14-0.01-0.12-0.12c0.07-0.46,0.44-0.79,0.92-0.8
			c0.54-0.01,0.91,0.27,1.01,0.76c0.03,0.13,0.01,0.18-0.14,0.17C13.29,10.74,13.01,10.74,12.74,10.74z"/>
	</g>
</g>
</svg>
