<?xml version="1.0" encoding="utf-8"?>
<!-- Generator: Adobe Illustrator 23.0.6, SVG Export Plug-In . SVG Version: 6.00 Build 0)  -->
<svg version="1.1" xmlns="http://www.w3.org/2000/svg" xmlns:xlink="http://www.w3.org/1999/xlink" x="0px" y="0px"
	 viewBox="0 0 20 20" style="enable-background:new 0 0 20 20;" xml:space="preserve">
<style type="text/css">
	.st0{clip-path:url(#SVGID_2_);}
	.st1{clip-path:url(#SVGID_4_);}
	.st2{fill:#580859;}
	.st3{clip-path:url(#SVGID_8_);}
	.st4{clip-path:url(#SVGID_10_);}
	.st5{clip-path:url(#SVGID_14_);}
	.st6{clip-path:url(#SVGID_16_);}
	.st7{clip-path:url(#SVGID_20_);}
	.st8{clip-path:url(#SVGID_24_);}
	.st9{opacity:0.5;}
	.st10{fill:#FFFFFF;}
	.st11{fill:none;}
	.st12{fill:none;stroke:#000000;stroke-miterlimit:10;}
	.st13{fill:none;stroke:#580859;stroke-width:2;stroke-miterlimit:10;}
	.st14{opacity:0.8;}
	.st15{fill:none;stroke:#FFFFFF;stroke-miterlimit:10;}
	.st16{clip-path:url(#SVGID_42_);}
	.st17{clip-path:url(#SVGID_44_);}
	.st18{clip-path:url(#SVGID_46_);}
	.st19{clip-path:url(#SVGID_48_);}
	.st20{clip-path:url(#SVGID_50_);}
	.st21{clip-path:url(#SVGID_52_);}
	.st22{clip-path:url(#SVGID_54_);}
	.st23{clip-path:url(#SVGID_56_);}
	.st24{clip-path:url(#SVGID_58_);}
</style>
<g id="Capa_1">
</g>
<g id="Capa_2">
	<g>
		<defs>
			<path id="SVGID_53_" d="M17.8,19.42c-5.2,0-10.4,0-15.61,0c-0.03-0.01-0.05-0.03-0.08-0.03c-0.45-0.09-0.81-0.32-1.11-0.67
				c-0.23-0.27-0.34-0.59-0.43-0.92c0-5.2,0-10.4,0-15.61C0.59,2.18,0.6,2.16,0.61,2.13c0.2-0.95,0.95-1.56,1.91-1.56
				c4.99,0,9.97,0,14.96,0c0.17,0,0.34,0.02,0.51,0.06c0.87,0.22,1.43,0.97,1.43,1.9c0,4.97,0,9.95,0,14.92c0,0.06,0,0.11,0,0.17
				c-0.03,0.53-0.25,0.96-0.64,1.32C18.5,19.2,18.16,19.33,17.8,19.42z M10.94,9.17c0-0.29-0.01-0.58,0-0.86
				c0-0.14-0.02-0.19-0.18-0.19c-0.83,0.01-1.66,0.01-2.48,0c-0.15,0-0.17,0.05-0.17,0.18c0,2.71,0,5.42,0,8.13
				c0,0.14,0.05,0.17,0.18,0.17c0.82-0.01,1.64-0.01,2.47,0c0.16,0,0.19-0.05,0.19-0.2c-0.01-1.54,0-3.08,0-4.62
				c0-0.12,0-0.23,0.01-0.35c0.09-0.93,1.19-1.53,2-1.09c0.54,0.29,0.8,0.75,0.8,1.36c0,1.56,0,3.12,0,4.67
				c0,0.16,0.03,0.22,0.21,0.22c0.81-0.01,1.62-0.01,2.43,0c0.15,0,0.2-0.03,0.2-0.19c-0.01-1.71,0-3.41,0-5.12
				c0-1.16-0.48-2.09-1.43-2.76c-1-0.71-2.26-0.86-3.39-0.1C11.47,8.64,11.2,8.88,10.94,9.17z M3.41,12.36c0,1.36,0,2.71,0,4.07
				c0,0.14,0.03,0.18,0.17,0.17c0.83-0.01,1.66-0.01,2.48,0c0.14,0,0.18-0.04,0.18-0.17c0-2.71,0-5.42,0-8.13
				c0-0.14-0.04-0.18-0.18-0.17c-0.82,0.01-1.64,0.01-2.47,0c-0.15,0-0.19,0.04-0.19,0.19C3.41,9.66,3.41,11.01,3.41,12.36z
				 M6.51,4.82c0-0.93-0.75-1.7-1.69-1.7c-0.93,0-1.7,0.77-1.7,1.7c0,0.93,0.75,1.68,1.68,1.69C5.74,6.52,6.5,5.76,6.51,4.82z"/>
		</defs>
		<clipPath id="SVGID_2_">
			<use xlink:href="#SVGID_53_"  style="overflow:visible;"/>
		</clipPath>
		<g class="st0">
			<path class="st10" d="M13.44,19.42H6.56c-3.31,0-5.99-2.68-5.99-5.99V6.56c0-3.31,2.68-5.99,5.99-5.99h6.87
				c3.31,0,5.99,2.68,5.99,5.99v6.87C19.42,16.74,16.74,19.42,13.44,19.42z"/>
		</g>
	</g>
</g>
</svg>
