<?xml version="1.0" encoding="utf-8"?>
<!-- Generator: Adobe Illustrator 23.0.6, SVG Export Plug-In . SVG Version: 6.00 Build 0)  -->
<svg version="1.1" xmlns="http://www.w3.org/2000/svg" xmlns:xlink="http://www.w3.org/1999/xlink" x="0px" y="0px"
	 viewBox="0 0 300 100" style="enable-background:new 0 0 300 100;" xml:space="preserve">
<style type="text/css">
	.st0{clip-path:url(#SVGID_2_);}
	.st1{fill:#580859;}
	.st2{clip-path:url(#SVGID_3_);}
	.st3{clip-path:url(#SVGID_4_);}
	.st4{clip-path:url(#SVGID_5_);}
	.st5{clip-path:url(#SVGID_6_);}
	.st6{clip-path:url(#SVGID_8_);}
	.st7{opacity:0.5;}
	.st8{fill:#FFFFFF;}
	.st9{opacity:0.02;fill:#FFFFFF;}
	.st10{fill:#D34083;}
	.st11{fill:none;stroke:#000000;stroke-miterlimit:10;}
	.st12{fill:none;stroke:#580859;stroke-width:2;stroke-miterlimit:10;}
	.st13{fill:#1A1A1A;}
	.st14{fill:none;stroke:#FFFFFF;stroke-width:2;stroke-miterlimit:10;}
	.st15{fill:none;stroke:#FFFFFF;stroke-miterlimit:10;}
	.st16{opacity:0.8;}
	.st17{fill:none;}
	.st18{clip-path:url(#SVGID_40_);}
	.st19{clip-path:url(#SVGID_42_);}
	.st20{clip-path:url(#SVGID_44_);}
	.st21{clip-path:url(#SVGID_46_);}
	.st22{clip-path:url(#SVGID_48_);}
	.st23{clip-path:url(#SVGID_50_);}
	.st24{clip-path:url(#SVGID_52_);}
	.st25{clip-path:url(#SVGID_54_);}
	.st26{clip-path:url(#SVGID_56_);}
	.st27{fill:none;stroke:#FF7BAC;stroke-width:4;stroke-miterlimit:10;}
</style>
<g id="Capa_1">
</g>
<g id="Capa_2">
	<g>
		<g>
			<path class="st1" d="M39.39,27.56h3.06l5.49,5.51l5.49-5.51h3.06v15.1h-3.06V31.8l-5.49,5.29l-5.49-5.29v10.86h-3.06V27.56z"/>
			<path class="st1" d="M60.79,27.56h12.86v2.69h-9.8v3.01h8.68v2.52h-8.68v4.2h10v2.68H60.79V27.56z"/>
			<path class="st1" d="M77.26,27.56h3.06v12.42h8.78v2.69H77.26V27.56z"/>
			<path class="st1" d="M91.68,27.56h3.08v15.1h-3.08V27.56z"/>
			<path class="st1" d="M98.65,27.56h3.06l9.41,4.93v-4.93h3.06v15.1h-3.06v-6.93l-9.41-4.9v11.83h-3.06V27.56z"/>
			<path class="st1" d="M123.61,27.56h3.25l7.3,15.1h-3.22l-1.21-2.54h-8.82l-1.17,2.54h-3.23L123.61,27.56z M128.53,37.6
				l-3.27-6.86l-3.18,6.86H128.53z"/>
			<path class="st1" d="M143.07,27.56h3.06v3.94h9.39v-3.94h3.07v15.1h-3.07v-8.54h-9.39v8.54h-3.06V27.56z"/>
			<path class="st1" d="M168.04,27.56h3.25l7.3,15.1h-3.22l-1.21-2.54h-8.82l-1.17,2.54h-3.23L168.04,27.56z M172.96,37.6
				l-3.27-6.86l-3.18,6.86H172.96z"/>
			<path class="st1" d="M180.94,27.56H184v12.42h8.78v2.69h-11.85V27.56z"/>
			<path class="st1" d="M195.75,27.56h13.51v2.69h-10.45v3.95h8.87v2.52h-8.87v5.94h-3.06V27.56z"/>
			<path class="st1" d="M211.33,35.07c0-1.14,0.21-2.18,0.63-3.13c0.42-0.95,1.01-1.76,1.76-2.44c0.76-0.68,1.67-1.21,2.72-1.58
				c1.06-0.37,2.23-0.56,3.52-0.56c1.28,0,2.45,0.19,3.52,0.56c1.06,0.37,1.97,0.9,2.73,1.58s1.34,1.49,1.76,2.44
				c0.42,0.95,0.63,1.99,0.63,3.13c0,1.15-0.21,2.2-0.63,3.15s-1.01,1.78-1.76,2.47s-1.67,1.23-2.73,1.61
				c-1.06,0.38-2.24,0.57-3.52,0.57c-1.29,0-2.46-0.19-3.52-0.57c-1.06-0.38-1.97-0.92-2.72-1.61c-0.76-0.69-1.34-1.51-1.76-2.47
				S211.33,36.21,211.33,35.07z M214.39,35.07c0,0.78,0.14,1.48,0.42,2.11c0.28,0.62,0.67,1.16,1.17,1.6
				c0.5,0.44,1.09,0.78,1.77,1.02c0.68,0.24,1.42,0.36,2.22,0.36c0.8,0,1.54-0.12,2.22-0.36c0.68-0.24,1.27-0.58,1.76-1.02
				c0.5-0.44,0.89-0.97,1.17-1.6c0.28-0.62,0.43-1.33,0.43-2.11s-0.14-1.48-0.43-2.1s-0.67-1.14-1.17-1.57
				c-0.5-0.43-1.08-0.76-1.76-0.98c-0.68-0.23-1.42-0.34-2.22-0.34c-0.8,0-1.54,0.11-2.22,0.34c-0.68,0.23-1.27,0.55-1.77,0.98
				c-0.5,0.43-0.89,0.95-1.17,1.57C214.53,33.59,214.39,34.29,214.39,35.07z"/>
			<path class="st1" d="M231.98,27.56h3.06l9.41,4.93v-4.93h3.06v15.1h-3.06v-6.93l-9.41-4.9v11.83h-3.06V27.56z"/>
		</g>
	</g>
	<g>
		<g>
			<path class="st1" d="M39.12,63.12V50.56c0-0.12,0.06-0.18,0.18-0.18h4.28c1.18,0,2.12,0.31,2.81,0.93
				c0.69,0.62,1.03,1.47,1.03,2.54v5.98c0,1.07-0.34,1.92-1.03,2.54c-0.69,0.62-1.63,0.93-2.81,0.93H39.3
				C39.18,63.31,39.12,63.24,39.12,63.12z M40.17,62.44h3.47c0.86,0,1.54-0.24,2.04-0.73s0.75-1.15,0.77-1.99v-5.76
				c0-0.84-0.25-1.5-0.75-1.99c-0.5-0.49-1.19-0.73-2.06-0.73h-3.47c-0.05,0-0.07,0.02-0.07,0.07v11.04
				C40.1,62.41,40.12,62.44,40.17,62.44z"/>
			<path class="st1" d="M50.35,51.87c-0.17-0.17-0.26-0.39-0.26-0.66c0-0.27,0.09-0.49,0.26-0.67c0.17-0.17,0.39-0.26,0.66-0.26
				c0.27,0,0.49,0.09,0.66,0.26c0.17,0.17,0.26,0.39,0.26,0.67c0,0.27-0.09,0.49-0.26,0.66c-0.17,0.17-0.39,0.26-0.66,0.26
				C50.74,52.13,50.52,52.05,50.35,51.87z M50.48,63.1v-8.94c0-0.12,0.06-0.18,0.18-0.18h0.61c0.12,0,0.18,0.06,0.18,0.18v8.94
				c0,0.12-0.06,0.18-0.18,0.18h-0.61C50.54,63.29,50.48,63.23,50.48,63.1z"/>
			<path class="st1" d="M56.12,63.08c-0.51-0.22-0.91-0.51-1.19-0.88c-0.28-0.37-0.42-0.78-0.42-1.22v-0.24
				c0-0.12,0.06-0.18,0.18-0.18h0.57c0.12,0,0.18,0.06,0.18,0.18v0.2c0,0.46,0.23,0.85,0.68,1.17c0.46,0.33,1.03,0.49,1.74,0.49
				c0.69,0,1.25-0.17,1.68-0.5c0.43-0.33,0.65-0.74,0.65-1.24c0-0.34-0.11-0.63-0.33-0.85c-0.22-0.22-0.48-0.39-0.78-0.51
				c-0.3-0.12-0.75-0.27-1.36-0.45c-0.69-0.21-1.24-0.41-1.66-0.59c-0.42-0.18-0.77-0.45-1.06-0.78c-0.29-0.34-0.43-0.77-0.43-1.28
				c0-0.75,0.3-1.35,0.9-1.8c0.6-0.45,1.38-0.67,2.36-0.67c0.65,0,1.23,0.11,1.73,0.32c0.5,0.22,0.89,0.51,1.16,0.88
				c0.28,0.37,0.42,0.79,0.42,1.26v0.06c0,0.12-0.06,0.18-0.18,0.18h-0.57c-0.12,0-0.18-0.06-0.18-0.18v-0.06
				c0-0.47-0.22-0.86-0.66-1.17c-0.44-0.31-1.01-0.47-1.73-0.47c-0.69,0-1.24,0.14-1.66,0.43c-0.42,0.29-0.63,0.68-0.63,1.17
				c0,0.47,0.19,0.82,0.58,1.05c0.39,0.23,0.99,0.47,1.82,0.72c0.71,0.21,1.28,0.41,1.71,0.59c0.42,0.18,0.79,0.45,1.1,0.78
				c0.31,0.34,0.46,0.78,0.46,1.32c0,0.78-0.3,1.4-0.9,1.87c-0.6,0.47-1.39,0.71-2.39,0.71C57.22,63.4,56.63,63.29,56.12,63.08z"/>
			<path class="st1" d="M68.75,62.19c0.41-0.26,0.74-0.63,0.97-1.1c0.06-0.11,0.14-0.14,0.24-0.09l0.48,0.24
				c0.11,0.06,0.14,0.14,0.09,0.24c-0.27,0.6-0.7,1.08-1.28,1.44c-0.58,0.36-1.27,0.54-2.06,0.54c-0.86,0-1.59-0.21-2.2-0.63
				c-0.6-0.42-1.02-0.99-1.24-1.72c-0.1-0.31-0.17-0.65-0.2-1.03c-0.04-0.38-0.06-0.86-0.06-1.44c0-0.6,0.01-1.06,0.03-1.37
				c0.02-0.31,0.06-0.59,0.12-0.85c0.2-0.78,0.6-1.4,1.21-1.87c0.61-0.47,1.36-0.7,2.24-0.7c1.01,0,1.82,0.26,2.42,0.78
				c0.6,0.52,0.98,1.25,1.13,2.17c0.04,0.23,0.06,0.51,0.07,0.82c0.01,0.31,0.02,0.71,0.02,1.17c0,0.12-0.06,0.18-0.18,0.18h-6.02
				c-0.05,0-0.07,0.02-0.07,0.07c0,0.79,0.03,1.31,0.09,1.57c0.14,0.6,0.44,1.08,0.91,1.43c0.47,0.35,1.07,0.53,1.8,0.53
				C67.84,62.59,68.34,62.45,68.75,62.19z M64.46,58.08c0,0.05,0.02,0.07,0.07,0.07h5.15c0.05,0,0.07-0.02,0.07-0.07
				c0-0.62-0.03-1.08-0.09-1.39c-0.14-0.59-0.43-1.07-0.89-1.43c-0.46-0.36-1.02-0.54-1.68-0.54c-0.67,0-1.22,0.18-1.66,0.53
				c-0.44,0.35-0.73,0.82-0.85,1.39C64.53,56.87,64.48,57.35,64.46,58.08z"/>
			<path class="st1" d="M79.54,54.74c0.58,0.58,0.88,1.34,0.88,2.29v6.1c0,0.12-0.06,0.18-0.18,0.18h-0.61
				c-0.12,0-0.18-0.06-0.18-0.18v-5.91c0-0.73-0.22-1.32-0.66-1.78c-0.44-0.46-1.02-0.69-1.74-0.69c-0.74,0-1.34,0.22-1.79,0.67
				c-0.46,0.45-0.68,1.04-0.68,1.76v5.95c0,0.12-0.06,0.18-0.18,0.18h-0.61c-0.12,0-0.18-0.06-0.18-0.18v-8.94
				c0-0.12,0.06-0.18,0.18-0.18h0.61c0.12,0,0.18,0.06,0.18,0.18v0.91c0,0.04,0.01,0.06,0.03,0.06c0.02,0.01,0.03,0,0.05-0.03
				c0.27-0.41,0.63-0.72,1.07-0.93c0.44-0.22,0.95-0.32,1.53-0.32C78.19,53.87,78.95,54.16,79.54,54.74z M77.53,51.92
				c-0.16-0.07-0.34-0.17-0.55-0.3c-0.21-0.14-0.38-0.23-0.5-0.3c-0.12-0.06-0.26-0.09-0.41-0.09c-0.21,0-0.39,0.04-0.55,0.11
				c-0.16,0.07-0.31,0.2-0.46,0.39c-0.07,0.12-0.16,0.14-0.26,0.04l-0.24-0.2c-0.09-0.09-0.1-0.17-0.04-0.26
				c0.39-0.57,0.9-0.85,1.51-0.85c0.18,0,0.35,0.03,0.5,0.09c0.15,0.06,0.28,0.13,0.41,0.19c0.12,0.07,0.2,0.11,0.24,0.14
				c0.23,0.14,0.41,0.23,0.54,0.3c0.12,0.06,0.25,0.09,0.39,0.09c0.41,0,0.74-0.18,1-0.55c0.07-0.11,0.16-0.12,0.26-0.04l0.2,0.18
				c0.09,0.09,0.1,0.19,0.04,0.31c-0.17,0.28-0.4,0.5-0.67,0.64c-0.28,0.14-0.56,0.21-0.84,0.21
				C77.88,52.02,77.69,51.99,77.53,51.92z"/>
			<path class="st1" d="M84.65,62.77c-0.62-0.46-1.03-1.06-1.26-1.83c-0.14-0.49-0.2-1.26-0.2-2.31c0-1.05,0.07-1.81,0.2-2.29
				c0.22-0.76,0.64-1.37,1.25-1.82c0.61-0.45,1.36-0.67,2.24-0.67c0.86,0,1.6,0.23,2.23,0.68c0.62,0.46,1.04,1.06,1.25,1.81
				c0.07,0.28,0.12,0.6,0.15,0.95c0.02,0.35,0.04,0.8,0.04,1.34c0,0.57-0.01,1.02-0.04,1.37c-0.02,0.34-0.07,0.66-0.15,0.94
				c-0.21,0.76-0.63,1.37-1.25,1.83c-0.62,0.46-1.37,0.68-2.24,0.68C86,63.45,85.26,63.23,84.65,62.77z M88.53,62.04
				c0.46-0.36,0.76-0.84,0.9-1.43c0.09-0.33,0.13-0.98,0.13-1.96c0-0.98-0.04-1.64-0.11-1.96c-0.14-0.6-0.43-1.08-0.9-1.44
				c-0.46-0.36-1.03-0.54-1.69-0.54c-0.67,0-1.23,0.18-1.68,0.54c-0.46,0.36-0.75,0.84-0.89,1.44c-0.09,0.38-0.13,1.03-0.13,1.96
				c0,0.92,0.04,1.58,0.13,1.96c0.14,0.6,0.43,1.08,0.89,1.44c0.46,0.36,1.02,0.54,1.68,0.54C87.51,62.59,88.07,62.4,88.53,62.04z"
				/>
			<path class="st1" d="M96.5,66.82v-0.48c0-0.12,0.06-0.18,0.18-0.18h0.07c0.47-0.01,0.83-0.09,1.1-0.23
				c0.26-0.14,0.49-0.4,0.68-0.78c0.19-0.38,0.42-0.97,0.67-1.77c0.02-0.05,0.02-0.09,0-0.11l-3.16-9.05l-0.02-0.07
				c0-0.09,0.06-0.13,0.17-0.13h0.63c0.11,0,0.18,0.05,0.22,0.15l2.62,7.83c0.01,0.02,0.03,0.04,0.06,0.04
				c0.02,0,0.04-0.01,0.06-0.04l2.55-7.83c0.04-0.1,0.11-0.15,0.22-0.15h0.63c0.14,0,0.18,0.07,0.15,0.2l-3.49,10.05
				c-0.28,0.8-0.55,1.39-0.79,1.77c-0.25,0.38-0.54,0.64-0.88,0.78c-0.34,0.14-0.81,0.2-1.41,0.2h-0.13
				C96.55,67,96.5,66.94,96.5,66.82z"/>
			<path class="st1" d="M110.29,62.77c-0.61-0.46-1.02-1.06-1.23-1.83c-0.16-0.59-0.24-1.36-0.24-2.31c0-0.91,0.08-1.67,0.24-2.29
				c0.2-0.75,0.6-1.35,1.22-1.81c0.62-0.46,1.36-0.68,2.23-0.68c0.87,0,1.63,0.22,2.26,0.66c0.63,0.44,1.04,1,1.21,1.66
				c0.05,0.17,0.09,0.34,0.11,0.52v0.04c0,0.09-0.06,0.14-0.17,0.17l-0.59,0.07h-0.04c-0.09,0-0.14-0.06-0.17-0.17l-0.06-0.26
				c-0.11-0.52-0.4-0.95-0.87-1.3c-0.47-0.35-1.03-0.53-1.7-0.53c-0.68,0-1.24,0.18-1.69,0.54c-0.45,0.36-0.74,0.83-0.86,1.42
				c-0.11,0.47-0.17,1.13-0.17,1.98c0,0.86,0.06,1.51,0.17,1.96c0.12,0.6,0.41,1.08,0.86,1.44c0.45,0.36,1.01,0.54,1.69,0.54
				c0.66,0,1.23-0.18,1.71-0.53c0.47-0.35,0.76-0.79,0.86-1.32l0.02-0.09c0.02-0.14,0.1-0.19,0.22-0.17l0.57,0.09
				c0.12,0.02,0.18,0.09,0.17,0.2l-0.07,0.33c-0.17,0.69-0.58,1.25-1.21,1.69c-0.63,0.44-1.39,0.66-2.26,0.66
				C111.64,63.45,110.9,63.23,110.29,62.77z"/>
			<path class="st1" d="M119.77,62.77c-0.62-0.46-1.03-1.06-1.26-1.83c-0.14-0.49-0.2-1.26-0.2-2.31c0-1.05,0.07-1.81,0.2-2.29
				c0.22-0.76,0.64-1.37,1.25-1.82c0.61-0.45,1.36-0.67,2.24-0.67c0.86,0,1.6,0.23,2.23,0.68c0.62,0.46,1.04,1.06,1.25,1.81
				c0.07,0.28,0.12,0.6,0.15,0.95c0.02,0.35,0.04,0.8,0.04,1.34c0,0.57-0.01,1.02-0.04,1.37c-0.02,0.34-0.07,0.66-0.15,0.94
				c-0.21,0.76-0.63,1.37-1.25,1.83c-0.62,0.46-1.37,0.68-2.24,0.68C121.13,63.45,120.39,63.23,119.77,62.77z M123.66,62.04
				c0.46-0.36,0.76-0.84,0.9-1.43c0.09-0.33,0.13-0.98,0.13-1.96c0-0.98-0.04-1.64-0.11-1.96c-0.14-0.6-0.43-1.08-0.9-1.44
				c-0.46-0.36-1.03-0.54-1.69-0.54c-0.67,0-1.23,0.18-1.68,0.54c-0.46,0.36-0.75,0.84-0.89,1.44c-0.09,0.38-0.13,1.03-0.13,1.96
				c0,0.92,0.04,1.58,0.13,1.96c0.14,0.6,0.43,1.08,0.89,1.44c0.46,0.36,1.02,0.54,1.68,0.54C122.64,62.59,123.2,62.4,123.66,62.04z
				"/>
			<path class="st1" d="M139.98,54.68c0.54,0.54,0.81,1.29,0.81,2.23v6.21c0,0.12-0.06,0.18-0.18,0.18h-0.59
				c-0.12,0-0.18-0.06-0.18-0.18V57.1c0-0.73-0.21-1.3-0.64-1.73c-0.42-0.42-0.98-0.64-1.65-0.64c-0.71,0-1.29,0.21-1.73,0.63
				c-0.44,0.42-0.66,0.99-0.66,1.7v6.06c0,0.12-0.06,0.18-0.18,0.18h-0.59c-0.12,0-0.18-0.06-0.18-0.18V57.1
				c0-0.73-0.21-1.3-0.63-1.73c-0.42-0.42-0.97-0.64-1.64-0.64c-0.73,0-1.3,0.21-1.73,0.63c-0.42,0.42-0.64,0.99-0.64,1.7v6.06
				c0,0.12-0.06,0.18-0.18,0.18h-0.61c-0.12,0-0.18-0.06-0.18-0.18v-8.94c0-0.12,0.06-0.18,0.18-0.18h0.61
				c0.12,0,0.18,0.06,0.18,0.18v0.83c0,0.02,0.01,0.04,0.04,0.06c0.02,0.01,0.04,0.01,0.06-0.02c0.26-0.39,0.61-0.69,1.04-0.89
				c0.44-0.2,0.93-0.3,1.49-0.3c0.64,0,1.19,0.14,1.65,0.42c0.46,0.28,0.81,0.67,1.04,1.17c0.02,0.05,0.06,0.06,0.09,0.02
				c0.26-0.53,0.63-0.93,1.13-1.2c0.49-0.27,1.06-0.41,1.72-0.41C138.72,53.87,139.44,54.14,139.98,54.68z"/>
			<path class="st1" d="M149.75,54h0.59c0.12,0,0.18,0.06,0.18,0.18v8.94c0,0.12-0.06,0.18-0.18,0.18h-0.59
				c-0.12,0-0.18-0.06-0.18-0.18v-0.91c0-0.04-0.01-0.06-0.04-0.06c-0.03-0.01-0.04,0.01-0.06,0.05c-0.26,0.41-0.61,0.71-1.04,0.92
				c-0.44,0.21-0.95,0.31-1.54,0.31c-0.91,0-1.67-0.27-2.27-0.81c-0.6-0.54-0.91-1.29-0.91-2.23v-6.21c0-0.12,0.06-0.18,0.18-0.18
				h0.59c0.12,0,0.18,0.06,0.18,0.18v5.95c0,0.74,0.22,1.33,0.66,1.77c0.44,0.44,1.02,0.66,1.75,0.66c0.75,0,1.35-0.22,1.81-0.67
				c0.46-0.45,0.68-1.04,0.68-1.76v-5.95C149.57,54.06,149.63,54,149.75,54z"/>
			<path class="st1" d="M159.7,54.74c0.58,0.58,0.88,1.34,0.88,2.29v6.1c0,0.12-0.06,0.18-0.18,0.18h-0.61
				c-0.12,0-0.18-0.06-0.18-0.18v-5.91c0-0.73-0.22-1.32-0.66-1.78c-0.44-0.46-1.02-0.69-1.74-0.69c-0.74,0-1.34,0.22-1.79,0.67
				c-0.46,0.45-0.68,1.04-0.68,1.76v5.95c0,0.12-0.06,0.18-0.18,0.18h-0.61c-0.12,0-0.18-0.06-0.18-0.18v-8.94
				c0-0.12,0.06-0.18,0.18-0.18h0.61c0.12,0,0.18,0.06,0.18,0.18v0.91c0,0.04,0.01,0.06,0.03,0.06c0.02,0.01,0.03,0,0.05-0.03
				c0.27-0.41,0.63-0.72,1.07-0.93c0.44-0.22,0.95-0.32,1.53-0.32C158.34,53.87,159.11,54.16,159.7,54.74z"/>
			<path class="st1" d="M163.75,51.87c-0.17-0.17-0.26-0.39-0.26-0.66c0-0.27,0.09-0.49,0.26-0.67c0.17-0.17,0.39-0.26,0.66-0.26
				c0.27,0,0.49,0.09,0.66,0.26c0.17,0.17,0.26,0.39,0.26,0.67c0,0.27-0.09,0.49-0.26,0.66c-0.17,0.17-0.39,0.26-0.66,0.26
				C164.14,52.13,163.92,52.05,163.75,51.87z M163.88,63.1v-8.94c0-0.12,0.06-0.18,0.18-0.18h0.61c0.12,0,0.18,0.06,0.18,0.18v8.94
				c0,0.12-0.06,0.18-0.18,0.18h-0.61C163.94,63.29,163.88,63.23,163.88,63.1z"/>
			<path class="st1" d="M169.54,62.77c-0.61-0.46-1.02-1.06-1.23-1.83c-0.16-0.59-0.24-1.36-0.24-2.31c0-0.91,0.08-1.67,0.24-2.29
				c0.2-0.75,0.6-1.35,1.22-1.81c0.62-0.46,1.36-0.68,2.23-0.68c0.87,0,1.63,0.22,2.26,0.66c0.63,0.44,1.04,1,1.21,1.66
				c0.05,0.17,0.09,0.34,0.11,0.52v0.04c0,0.09-0.06,0.14-0.17,0.17l-0.59,0.07h-0.04c-0.09,0-0.14-0.06-0.17-0.17l-0.06-0.26
				c-0.11-0.52-0.4-0.95-0.87-1.3c-0.47-0.35-1.03-0.53-1.7-0.53c-0.68,0-1.24,0.18-1.69,0.54c-0.45,0.36-0.74,0.83-0.86,1.42
				c-0.11,0.47-0.17,1.13-0.17,1.98c0,0.86,0.06,1.51,0.17,1.96c0.12,0.6,0.41,1.08,0.86,1.44c0.45,0.36,1.01,0.54,1.69,0.54
				c0.66,0,1.23-0.18,1.71-0.53c0.47-0.35,0.76-0.79,0.86-1.32l0.02-0.09c0.02-0.14,0.1-0.19,0.22-0.17l0.57,0.09
				c0.12,0.02,0.18,0.09,0.17,0.2l-0.07,0.33c-0.17,0.69-0.58,1.25-1.21,1.69c-0.63,0.44-1.39,0.66-2.26,0.66
				C170.89,63.45,170.15,63.23,169.54,62.77z"/>
			<path class="st1" d="M183.48,54.69c0.57,0.56,0.85,1.31,0.85,2.26v6.17c0,0.12-0.06,0.18-0.18,0.18h-0.61
				c-0.12,0-0.18-0.06-0.18-0.18v-0.87c0-0.02-0.01-0.04-0.03-0.06c-0.02-0.01-0.04-0.01-0.06,0.02c-0.32,0.41-0.74,0.71-1.25,0.92
				c-0.51,0.21-1.08,0.31-1.71,0.31c-0.85,0-1.57-0.22-2.16-0.65s-0.89-1.09-0.89-1.98c0-0.91,0.34-1.63,1.02-2.16
				c0.68-0.53,1.61-0.79,2.79-0.79h2.22c0.05,0,0.07-0.02,0.07-0.07v-0.83c0-0.69-0.19-1.24-0.58-1.64
				c-0.39-0.41-0.98-0.61-1.78-0.61c-0.63,0-1.15,0.13-1.55,0.39c-0.41,0.26-0.66,0.6-0.76,1.03c-0.04,0.12-0.11,0.18-0.22,0.17
				l-0.65-0.09c-0.14-0.02-0.19-0.07-0.17-0.15c0.11-0.66,0.47-1.2,1.08-1.61c0.61-0.41,1.37-0.61,2.28-0.61
				C182.08,53.85,182.91,54.13,183.48,54.69z M182.49,62.03c0.57-0.38,0.86-0.91,0.86-1.59v-1.68c0-0.05-0.02-0.07-0.07-0.07h-2.12
				c-0.87,0-1.58,0.18-2.11,0.55s-0.8,0.88-0.8,1.53c0,0.6,0.21,1.06,0.63,1.37c0.42,0.31,0.95,0.46,1.61,0.46
				C181.24,62.6,181.92,62.41,182.49,62.03z"/>
			<path class="st1" d="M188.42,62.77c-0.61-0.46-1.02-1.06-1.23-1.83c-0.16-0.59-0.24-1.36-0.24-2.31c0-0.91,0.08-1.67,0.24-2.29
				c0.2-0.75,0.6-1.35,1.22-1.81c0.62-0.46,1.36-0.68,2.23-0.68c0.87,0,1.63,0.22,2.26,0.66c0.63,0.44,1.04,1,1.21,1.66
				c0.05,0.17,0.09,0.34,0.11,0.52v0.04c0,0.09-0.06,0.14-0.17,0.17l-0.59,0.07h-0.04c-0.09,0-0.14-0.06-0.17-0.17l-0.06-0.26
				c-0.11-0.52-0.4-0.95-0.87-1.3c-0.47-0.35-1.03-0.53-1.7-0.53c-0.68,0-1.24,0.18-1.69,0.54c-0.45,0.36-0.74,0.83-0.86,1.42
				c-0.11,0.47-0.17,1.13-0.17,1.98c0,0.86,0.06,1.51,0.17,1.96c0.12,0.6,0.41,1.08,0.86,1.44c0.45,0.36,1.01,0.54,1.69,0.54
				c0.66,0,1.23-0.18,1.71-0.53c0.47-0.35,0.76-0.79,0.86-1.32l0.02-0.09c0.02-0.14,0.1-0.19,0.22-0.17l0.57,0.09
				c0.12,0.02,0.18,0.09,0.17,0.2l-0.07,0.33c-0.17,0.69-0.58,1.25-1.21,1.69c-0.63,0.44-1.39,0.66-2.26,0.66
				C189.77,63.45,189.03,63.23,188.42,62.77z"/>
			<path class="st1" d="M196.88,51.87c-0.17-0.17-0.26-0.39-0.26-0.66c0-0.27,0.09-0.49,0.26-0.67c0.17-0.17,0.39-0.26,0.66-0.26
				c0.27,0,0.49,0.09,0.66,0.26c0.17,0.17,0.26,0.39,0.26,0.67c0,0.27-0.09,0.49-0.26,0.66c-0.17,0.17-0.39,0.26-0.66,0.26
				C197.28,52.13,197.06,52.05,196.88,51.87z M197.01,63.1v-8.94c0-0.12,0.06-0.18,0.18-0.18h0.61c0.12,0,0.18,0.06,0.18,0.18v8.94
				c0,0.12-0.06,0.18-0.18,0.18h-0.61C197.08,63.29,197.01,63.23,197.01,63.1z"/>
			<path class="st1" d="M202.67,62.77c-0.62-0.46-1.03-1.06-1.26-1.83c-0.14-0.49-0.2-1.26-0.2-2.31c0-1.05,0.07-1.81,0.2-2.29
				c0.22-0.76,0.64-1.37,1.25-1.82c0.61-0.45,1.36-0.67,2.24-0.67c0.86,0,1.6,0.23,2.23,0.68c0.62,0.46,1.04,1.06,1.25,1.81
				c0.07,0.28,0.12,0.6,0.15,0.95c0.02,0.35,0.04,0.8,0.04,1.34c0,0.57-0.01,1.02-0.04,1.37c-0.02,0.34-0.07,0.66-0.15,0.94
				c-0.21,0.76-0.63,1.37-1.25,1.83c-0.62,0.46-1.37,0.68-2.24,0.68C204.02,63.45,203.28,63.23,202.67,62.77z M206.55,62.04
				c0.46-0.36,0.76-0.84,0.9-1.43c0.09-0.33,0.13-0.98,0.13-1.96c0-0.98-0.04-1.64-0.11-1.96c-0.14-0.6-0.43-1.08-0.9-1.44
				c-0.46-0.36-1.03-0.54-1.69-0.54c-0.67,0-1.23,0.18-1.68,0.54c-0.46,0.36-0.75,0.84-0.89,1.44c-0.09,0.38-0.13,1.03-0.13,1.96
				c0,0.92,0.04,1.58,0.13,1.96c0.14,0.6,0.43,1.08,0.89,1.44c0.46,0.36,1.02,0.54,1.68,0.54C205.53,62.59,206.09,62.4,206.55,62.04
				z M204.2,52.7c-0.02-0.04-0.02-0.1,0.02-0.16l1.13-2.03c0.04-0.09,0.11-0.13,0.22-0.13h0.54c0.07,0,0.12,0.02,0.15,0.06
				c0.02,0.04,0.02,0.1-0.02,0.16l-1.24,2.03c-0.06,0.09-0.14,0.13-0.22,0.13h-0.42C204.27,52.76,204.22,52.74,204.2,52.7z"/>
			<path class="st1" d="M217.32,54.74c0.58,0.58,0.88,1.34,0.88,2.29v6.1c0,0.12-0.06,0.18-0.18,0.18h-0.61
				c-0.12,0-0.18-0.06-0.18-0.18v-5.91c0-0.73-0.22-1.32-0.66-1.78c-0.44-0.46-1.02-0.69-1.74-0.69c-0.74,0-1.34,0.22-1.79,0.67
				c-0.46,0.45-0.68,1.04-0.68,1.76v5.95c0,0.12-0.06,0.18-0.18,0.18h-0.61c-0.12,0-0.18-0.06-0.18-0.18v-8.94
				c0-0.12,0.06-0.18,0.18-0.18h0.61c0.12,0,0.18,0.06,0.18,0.18v0.91c0,0.04,0.01,0.06,0.03,0.06c0.02,0.01,0.03,0,0.05-0.03
				c0.27-0.41,0.63-0.72,1.07-0.93c0.44-0.22,0.95-0.32,1.53-0.32C215.97,53.87,216.74,54.16,217.32,54.74z"/>
			<path class="st1" d="M227.08,63.16l-3.07-8.96L224,54.13c0-0.09,0.06-0.13,0.17-0.13h0.7c0.11,0,0.18,0.05,0.22,0.15l2.51,7.65
				c0.01,0.02,0.03,0.04,0.06,0.04c0.02,0,0.04-0.01,0.06-0.04l2.51-7.65c0.04-0.1,0.11-0.15,0.22-0.15l0.68,0.02
				c0.14,0,0.18,0.07,0.15,0.2l-3.05,8.94c-0.04,0.1-0.11,0.15-0.22,0.15h-0.7C227.19,63.31,227.12,63.26,227.08,63.16z"/>
			<path class="st1" d="M233.64,51.87c-0.17-0.17-0.26-0.39-0.26-0.66c0-0.27,0.09-0.49,0.26-0.67c0.17-0.17,0.39-0.26,0.66-0.26
				c0.27,0,0.49,0.09,0.66,0.26c0.17,0.17,0.26,0.39,0.26,0.67c0,0.27-0.09,0.49-0.26,0.66c-0.17,0.17-0.39,0.26-0.66,0.26
				C234.03,52.13,233.81,52.05,233.64,51.87z M233.77,63.1v-8.94c0-0.12,0.06-0.18,0.18-0.18h0.61c0.12,0,0.18,0.06,0.18,0.18v8.94
				c0,0.12-0.06,0.18-0.18,0.18h-0.61C233.83,63.29,233.77,63.23,233.77,63.1z"/>
			<path class="st1" d="M239.41,63.08c-0.51-0.22-0.91-0.51-1.19-0.88c-0.28-0.37-0.42-0.78-0.42-1.22v-0.24
				c0-0.12,0.06-0.18,0.18-0.18h0.57c0.12,0,0.18,0.06,0.18,0.18v0.2c0,0.46,0.23,0.85,0.68,1.17c0.46,0.33,1.03,0.49,1.74,0.49
				c0.69,0,1.25-0.17,1.68-0.5c0.43-0.33,0.65-0.74,0.65-1.24c0-0.34-0.11-0.63-0.33-0.85c-0.22-0.22-0.48-0.39-0.78-0.51
				c-0.3-0.12-0.75-0.27-1.36-0.45c-0.69-0.21-1.24-0.41-1.66-0.59c-0.42-0.18-0.77-0.45-1.06-0.78c-0.29-0.34-0.43-0.77-0.43-1.28
				c0-0.75,0.3-1.35,0.9-1.8c0.6-0.45,1.38-0.67,2.36-0.67c0.65,0,1.23,0.11,1.73,0.32c0.5,0.22,0.89,0.51,1.16,0.88
				c0.28,0.37,0.42,0.79,0.42,1.26v0.06c0,0.12-0.06,0.18-0.18,0.18h-0.57c-0.12,0-0.18-0.06-0.18-0.18v-0.06
				c0-0.47-0.22-0.86-0.66-1.17c-0.44-0.31-1.01-0.47-1.73-0.47c-0.69,0-1.24,0.14-1.66,0.43c-0.42,0.29-0.63,0.68-0.63,1.17
				c0,0.47,0.19,0.82,0.58,1.05c0.39,0.23,0.99,0.47,1.82,0.72c0.71,0.21,1.28,0.41,1.71,0.59c0.42,0.18,0.79,0.45,1.1,0.78
				c0.31,0.34,0.46,0.78,0.46,1.32c0,0.78-0.3,1.4-0.9,1.87c-0.6,0.47-1.39,0.71-2.39,0.71C240.51,63.4,239.92,63.29,239.41,63.08z"
				/>
			<path class="st1" d="M252.98,54h0.59c0.12,0,0.18,0.06,0.18,0.18v8.94c0,0.12-0.06,0.18-0.18,0.18h-0.59
				c-0.12,0-0.18-0.06-0.18-0.18v-0.91c0-0.04-0.01-0.06-0.04-0.06c-0.03-0.01-0.04,0.01-0.06,0.05c-0.26,0.41-0.61,0.71-1.04,0.92
				c-0.44,0.21-0.95,0.31-1.54,0.31c-0.91,0-1.67-0.27-2.27-0.81c-0.6-0.54-0.91-1.29-0.91-2.23v-6.21c0-0.12,0.06-0.18,0.18-0.18
				h0.59c0.12,0,0.18,0.06,0.18,0.18v5.95c0,0.74,0.22,1.33,0.66,1.77c0.44,0.44,1.02,0.66,1.75,0.66c0.75,0,1.35-0.22,1.81-0.67
				c0.46-0.45,0.68-1.04,0.68-1.76v-5.95C252.79,54.06,252.85,54,252.98,54z"/>
			<path class="st1" d="M262.53,54.69c0.57,0.56,0.85,1.31,0.85,2.26v6.17c0,0.12-0.06,0.18-0.18,0.18h-0.61
				c-0.12,0-0.18-0.06-0.18-0.18v-0.87c0-0.02-0.01-0.04-0.03-0.06c-0.02-0.01-0.04-0.01-0.06,0.02c-0.32,0.41-0.74,0.71-1.25,0.92
				c-0.51,0.21-1.08,0.31-1.71,0.31c-0.85,0-1.57-0.22-2.16-0.65s-0.89-1.09-0.89-1.98c0-0.91,0.34-1.63,1.02-2.16
				c0.68-0.53,1.61-0.79,2.79-0.79h2.22c0.05,0,0.07-0.02,0.07-0.07v-0.83c0-0.69-0.19-1.24-0.58-1.64
				c-0.39-0.41-0.98-0.61-1.78-0.61c-0.63,0-1.15,0.13-1.55,0.39c-0.41,0.26-0.66,0.6-0.76,1.03c-0.04,0.12-0.11,0.18-0.22,0.17
				l-0.65-0.09c-0.14-0.02-0.19-0.07-0.17-0.15c0.11-0.66,0.47-1.2,1.08-1.61c0.61-0.41,1.37-0.61,2.28-0.61
				C261.13,53.85,261.96,54.13,262.53,54.69z M261.54,62.03c0.57-0.38,0.86-0.91,0.86-1.59v-1.68c0-0.05-0.02-0.07-0.07-0.07h-2.12
				c-0.87,0-1.58,0.18-2.11,0.55c-0.54,0.37-0.8,0.88-0.8,1.53c0,0.6,0.21,1.06,0.63,1.37c0.42,0.31,0.95,0.46,1.61,0.46
				C260.29,62.6,260.96,62.41,261.54,62.03z"/>
			<path class="st1" d="M266.31,63.12V50.56c0-0.12,0.06-0.18,0.18-0.18h0.61c0.12,0,0.18,0.06,0.18,0.18v12.56
				c0,0.12-0.06,0.18-0.18,0.18h-0.61C266.37,63.31,266.31,63.24,266.31,63.12z"/>
		</g>
	</g>
</g>
</svg>
