<svg xmlns="http://www.w3.org/2000/svg" viewBox="0 0 320 100"><defs><style>.cls-1{fill:#580859;}</style></defs><title>logo-meli-23</title><g id="Capa_2" data-name="Capa 2"><path class="cls-1" d="M49.43,27.59H53l6.31,6.33,6.31-6.33H69.1V45H65.57V32.47l-6.31,6.07L53,32.47V45H49.43Z"/><path class="cls-1" d="M74,27.59H88.83v3.09H77.56v3.46h10V37h-10v4.84h11.5V45H74Z"/><path class="cls-1" d="M93,27.59H96.5V41.87h10.1V45H93Z"/><path class="cls-1" d="M109.56,27.59h3.55V45h-3.55Z"/><path class="cls-1" d="M117.58,27.59h3.52l10.82,5.66V27.59h3.52V45h-3.52V37L121.1,31.35V45h-3.52Z"/><path class="cls-1" d="M146.28,27.59H150L158.41,45h-3.7L153.32,42H143.18L141.83,45h-3.71Zm5.65,11.54-3.75-7.89-3.66,7.89Z"/><path class="cls-1" d="M168.65,27.59h3.53v4.53H183V27.59h3.53V45H183V35.13h-10.8V45h-3.53Z"/><path class="cls-1" d="M197.37,27.59h3.73L209.5,45h-3.7L204.41,42H194.27L192.92,45h-3.71ZM203,39.13l-3.75-7.89-3.66,7.89Z"/><path class="cls-1" d="M212.2,27.59h3.52V41.87h10.1V45H212.2Z"/><path class="cls-1" d="M229.23,27.59h15.54v3.09h-12v4.54H243v2.9h-10.2V45h-3.53Z"/><path class="cls-1" d="M247.14,36.22a8.84,8.84,0,0,1,.73-3.6,8.08,8.08,0,0,1,2-2.8A9.2,9.2,0,0,1,253,28a12.91,12.91,0,0,1,8.09,0,9,9,0,0,1,3.14,1.82,8.1,8.1,0,0,1,2,2.8,8.83,8.83,0,0,1,.72,3.6,9,9,0,0,1-.72,3.63,8.26,8.26,0,0,1-2,2.84,9.23,9.23,0,0,1-3.14,1.85,12.73,12.73,0,0,1-8.09,0,9.42,9.42,0,0,1-3.14-1.85,8.23,8.23,0,0,1-2-2.84A9,9,0,0,1,247.14,36.22Zm3.53,0a5.84,5.84,0,0,0,.48,2.42,5.17,5.17,0,0,0,1.35,1.84,6.09,6.09,0,0,0,2,1.18,8.13,8.13,0,0,0,5.1,0,6.09,6.09,0,0,0,2-1.18A5.4,5.4,0,0,0,263,38.64a6.2,6.2,0,0,0,0-4.83A5.38,5.38,0,0,0,261.66,32a6,6,0,0,0-2-1.12,8.53,8.53,0,0,0-5.1,0,6,6,0,0,0-2,1.12,5.15,5.15,0,0,0-1.35,1.81A5.83,5.83,0,0,0,250.67,36.22Z"/><path class="cls-1" d="M270.9,27.59h3.52l10.83,5.66V27.59h3.52V45h-3.52V37l-10.83-5.64V45H270.9Z"/><path class="cls-1" d="M49.12,68.48V54a.19.19,0,0,1,.21-.21h4.93a4.68,4.68,0,0,1,3.23,1.07,3.75,3.75,0,0,1,1.19,2.92V64.7a3.74,3.74,0,0,1-1.19,2.92,4.64,4.64,0,0,1-3.23,1.08H49.33C49.19,68.7,49.12,68.63,49.12,68.48Zm1.21-.78h4a3.22,3.22,0,0,0,2.35-.84,3.1,3.1,0,0,0,.88-2.28V58a3.05,3.05,0,0,0-.86-2.28,3.24,3.24,0,0,0-2.37-.84h-4c-.06,0-.09,0-.09.08v12.7A.08.08,0,0,0,50.33,67.7Z"/><path class="cls-1" d="M62,55.55a1.13,1.13,0,1,1,.77.3A1,1,0,0,1,62,55.55Zm.15,12.91V58.18a.19.19,0,0,1,.21-.21h.7a.19.19,0,0,1,.22.21V68.46a.19.19,0,0,1-.22.21h-.7A.19.19,0,0,1,62.18,68.46Z"/><path class="cls-1" d="M68.67,68.43a3.22,3.22,0,0,1-1.37-1,2.21,2.21,0,0,1-.49-1.4v-.28a.19.19,0,0,1,.21-.21h.66a.19.19,0,0,1,.21.21V66a1.64,1.64,0,0,0,.79,1.35,3.38,3.38,0,0,0,2,.56,3.1,3.1,0,0,0,1.93-.57,1.76,1.76,0,0,0,.74-1.43,1.33,1.33,0,0,0-.38-1,2.7,2.7,0,0,0-.9-.59c-.35-.13-.87-.31-1.56-.52a18.17,18.17,0,0,1-1.92-.68,3.4,3.4,0,0,1-1.22-.9,2.21,2.21,0,0,1-.5-1.48,2.49,2.49,0,0,1,1-2.07,4.44,4.44,0,0,1,2.71-.77,5,5,0,0,1,2,.37,3.24,3.24,0,0,1,1.34,1,2.37,2.37,0,0,1,.47,1.44v.07a.19.19,0,0,1-.21.21h-.66a.19.19,0,0,1-.21-.21v-.07a1.61,1.61,0,0,0-.75-1.35,3.37,3.37,0,0,0-2-.54,3.32,3.32,0,0,0-1.91.5A1.56,1.56,0,0,0,68,60.69a1.31,1.31,0,0,0,.67,1.21,9.71,9.71,0,0,0,2.09.83,17.75,17.75,0,0,1,2,.68,3.68,3.68,0,0,1,1.27.9,2.2,2.2,0,0,1,.53,1.52,2.62,2.62,0,0,1-1,2.15,4.29,4.29,0,0,1-2.75.82A5.14,5.14,0,0,1,68.67,68.43Z"/><path class="cls-1" d="M83.2,67.41a3.1,3.1,0,0,0,1.11-1.26c.07-.13.16-.17.28-.11l.55.28c.13.07.16.16.1.27a3.64,3.64,0,0,1-1.47,1.66,4.45,4.45,0,0,1-2.37.62,4.29,4.29,0,0,1-2.53-.73,3.66,3.66,0,0,1-1.42-2A5.84,5.84,0,0,1,77.22,65a15.28,15.28,0,0,1-.07-1.66c0-.69,0-1.21,0-1.57a7,7,0,0,1,.14-1,3.82,3.82,0,0,1,1.39-2.14,4.65,4.65,0,0,1,5.37.09,4.06,4.06,0,0,1,1.29,2.5c0,.27.07.58.09,1s0,.81,0,1.34c0,.15-.07.22-.21.22H78.34s-.08,0-.08.08a9.94,9.94,0,0,0,.1,1.81,2.71,2.71,0,0,0,1.06,1.64,3.33,3.33,0,0,0,2.07.61A3.08,3.08,0,0,0,83.2,67.41Zm-4.94-4.72a.07.07,0,0,0,.08.08h5.93a.07.07,0,0,0,.08-.08,9.12,9.12,0,0,0-.1-1.6,2.86,2.86,0,0,0-1-1.64,3,3,0,0,0-1.94-.63,3,3,0,0,0-1.91.61,2.64,2.64,0,0,0-1,1.6A9.53,9.53,0,0,0,78.26,62.69Z"/><path class="cls-1" d="M95.6,58.84a3.55,3.55,0,0,1,1,2.63v7c0,.15-.07.22-.21.22h-.71c-.14,0-.21-.07-.21-.22V61.69a2.83,2.83,0,0,0-.76-2,2.66,2.66,0,0,0-2-.8,2.79,2.79,0,0,0-2.06.78,2.72,2.72,0,0,0-.79,2v6.84c0,.15-.07.22-.21.22H89c-.14,0-.21-.07-.21-.22V58.2A.19.19,0,0,1,89,58h.7a.19.19,0,0,1,.21.21v1a.08.08,0,0,0,0,.08s0,0,0,0a3.06,3.06,0,0,1,1.23-1.08A4.1,4.1,0,0,1,93,57.84,3.63,3.63,0,0,1,95.6,58.84ZM93.29,55.6a4.21,4.21,0,0,1-.63-.35,6.3,6.3,0,0,0-.58-.34,1,1,0,0,0-.46-.1,1.59,1.59,0,0,0-.64.12,1.65,1.65,0,0,0-.53.45c-.09.14-.19.16-.3,0l-.28-.23a.22.22,0,0,1,0-.3,2.07,2.07,0,0,1,1.74-1,1.5,1.5,0,0,1,.58.11l.47.22.27.16c.27.16.48.27.62.34a1,1,0,0,0,.44.11,1.34,1.34,0,0,0,1.15-.64c.08-.13.18-.14.3,0l.23.21a.28.28,0,0,1,0,.36,1.86,1.86,0,0,1-.77.73,2,2,0,0,1-1,.25A1.62,1.62,0,0,1,93.29,55.6Z"/><path class="cls-1" d="M101.47,68.08A3.82,3.82,0,0,1,100,66a10.67,10.67,0,0,1-.24-2.66,10.34,10.34,0,0,1,.24-2.63,3.79,3.79,0,0,1,1.43-2.09,4.6,4.6,0,0,1,5.14,0A3.72,3.72,0,0,1,108,60.69a5,5,0,0,1,.17,1.09c0,.41,0,.92,0,1.54s0,1.18,0,1.57A5.08,5.08,0,0,1,108,66a3.7,3.7,0,0,1-1.43,2.1,4.25,4.25,0,0,1-2.58.79A4.2,4.2,0,0,1,101.47,68.08Zm4.47-.84a2.83,2.83,0,0,0,1-1.64,10.92,10.92,0,0,0,.15-2.26,11.9,11.9,0,0,0-.13-2.25,2.77,2.77,0,0,0-1-1.65,3.09,3.09,0,0,0-1.94-.62,3,3,0,0,0-1.93.62,2.75,2.75,0,0,0-1,1.65,11.55,11.55,0,0,0-.15,2.25,11.6,11.6,0,0,0,.15,2.26,2.75,2.75,0,0,0,1,1.65,3,3,0,0,0,1.93.62A3,3,0,0,0,105.94,67.24Z"/><path class="cls-1" d="M115.11,72.73v-.55a.19.19,0,0,1,.21-.21h.08a3,3,0,0,0,1.27-.27,2,2,0,0,0,.78-.9,16,16,0,0,0,.78-2c0-.06,0-.1,0-.13l-3.63-10.4,0-.09c0-.1.06-.15.19-.15h.72a.24.24,0,0,1,.25.17l3,9a.05.05,0,0,0,.06,0,.08.08,0,0,0,.07,0l2.93-9a.25.25,0,0,1,.25-.17h.72c.16,0,.22.08.17.24l-4,11.55a10.86,10.86,0,0,1-.91,2,2.23,2.23,0,0,1-1,.89,4.44,4.44,0,0,1-1.63.23h-.14Q115.11,72.94,115.11,72.73Z"/><path class="cls-1" d="M131,68.08a3.77,3.77,0,0,1-1.41-2.1,10.21,10.21,0,0,1-.28-2.66,10.33,10.33,0,0,1,.28-2.63,3.67,3.67,0,0,1,1.4-2.08,4.18,4.18,0,0,1,2.57-.79,4.41,4.41,0,0,1,2.6.77,3.26,3.26,0,0,1,1.39,1.91,4.16,4.16,0,0,1,.13.59v0c0,.09-.06.16-.19.19l-.68.08h0c-.1,0-.17-.06-.19-.19l-.07-.3a2.44,2.44,0,0,0-1-1.49,3.09,3.09,0,0,0-1.95-.61,3,3,0,0,0-1.94.62,2.69,2.69,0,0,0-1,1.63,10.29,10.29,0,0,0-.19,2.27,9.83,9.83,0,0,0,.19,2.26,2.71,2.71,0,0,0,1,1.65,3,3,0,0,0,1.94.62,3.19,3.19,0,0,0,2-.61,2.38,2.38,0,0,0,1-1.52l0-.1c0-.16.12-.22.26-.19l.66.1a.21.21,0,0,1,.19.24l-.09.38a3.24,3.24,0,0,1-1.39,1.94,4.48,4.48,0,0,1-2.6.76A4.19,4.19,0,0,1,131,68.08Z"/><path class="cls-1" d="M141.87,68.08a3.88,3.88,0,0,1-1.45-2.1,11.3,11.3,0,0,1-.23-2.66,11,11,0,0,1,.23-2.63,3.86,3.86,0,0,1,1.44-2.09,4.6,4.6,0,0,1,5.14,0,3.77,3.77,0,0,1,1.43,2.08,5.67,5.67,0,0,1,.17,1.09c0,.41,0,.92,0,1.54s0,1.18,0,1.57a5.79,5.79,0,0,1-.17,1.09,3.75,3.75,0,0,1-1.43,2.1,4.29,4.29,0,0,1-2.58.79A4.16,4.16,0,0,1,141.87,68.08Zm4.47-.84a2.88,2.88,0,0,0,1-1.64,10.92,10.92,0,0,0,.15-2.26,12.85,12.85,0,0,0-.13-2.25,2.81,2.81,0,0,0-1-1.65,3.35,3.35,0,0,0-3.88,0,2.85,2.85,0,0,0-1,1.65,11.55,11.55,0,0,0-.15,2.25,11.6,11.6,0,0,0,.15,2.26,2.85,2.85,0,0,0,1,1.65,3.07,3.07,0,0,0,1.94.62A3,3,0,0,0,146.34,67.24Z"/><path class="cls-1" d="M165.1,58.78a3.44,3.44,0,0,1,.94,2.57v7.13a.19.19,0,0,1-.22.22h-.67a.19.19,0,0,1-.22-.22V61.56a2.68,2.68,0,0,0-.73-2,2.6,2.6,0,0,0-1.9-.73,2.78,2.78,0,0,0-2,.72,2.6,2.6,0,0,0-.75,2v7c0,.15-.07.22-.21.22h-.68a.2.2,0,0,1-.22-.22V61.56a2.72,2.72,0,0,0-.72-2,2.56,2.56,0,0,0-1.89-.73,2.69,2.69,0,0,0-2,.72,2.63,2.63,0,0,0-.74,2v7c0,.15-.07.22-.21.22h-.7c-.14,0-.21-.07-.21-.22V58.2a.19.19,0,0,1,.21-.21h.7a.19.19,0,0,1,.21.21v1a.06.06,0,0,0,0,.06s.05,0,.06,0a2.84,2.84,0,0,1,1.2-1,4.21,4.21,0,0,1,1.71-.34,3.6,3.6,0,0,1,1.9.48,3,3,0,0,1,1.2,1.35c0,.06.06.06.11,0a3,3,0,0,1,1.29-1.38,4.08,4.08,0,0,1,2-.47A3.32,3.32,0,0,1,165.1,58.78Z"/><path class="cls-1" d="M176.34,58H177a.19.19,0,0,1,.21.21V68.48c0,.15-.07.22-.21.22h-.68c-.14,0-.21-.07-.21-.22v-1a.07.07,0,0,0,0-.07s-.05,0-.06,0a2.86,2.86,0,0,1-1.2,1.06,4.05,4.05,0,0,1-1.77.36,3.8,3.8,0,0,1-2.62-.93,3.29,3.29,0,0,1-1-2.57V58.2c0-.14.07-.21.22-.21h.67c.15,0,.22.07.22.21V65a2.79,2.79,0,0,0,.75,2,2.69,2.69,0,0,0,2,.77,2.82,2.82,0,0,0,2.08-.78,2.74,2.74,0,0,0,.79-2V58.2A.19.19,0,0,1,176.34,58Z"/><path class="cls-1" d="M187.77,58.84a3.51,3.51,0,0,1,1,2.63v7c0,.15-.07.22-.21.22h-.7c-.14,0-.21-.07-.21-.22V61.69a2.83,2.83,0,0,0-.77-2,2.64,2.64,0,0,0-2-.8,2.79,2.79,0,0,0-2.06.78,2.68,2.68,0,0,0-.79,2v6.84c0,.15-.07.22-.21.22h-.7c-.14,0-.21-.07-.21-.22V58.2a.19.19,0,0,1,.21-.21h.7a.19.19,0,0,1,.21.21v1s0,.07,0,.08,0,0,.06,0a3.06,3.06,0,0,1,1.23-1.08,4.07,4.07,0,0,1,1.76-.37A3.61,3.61,0,0,1,187.77,58.84Z"/><path class="cls-1" d="M192.44,55.55a1.13,1.13,0,0,1,0-1.53,1,1,0,0,1,.76-.3,1,1,0,0,1,1.06,1.06,1.06,1.06,0,0,1-.29.77,1,1,0,0,1-.77.3A1,1,0,0,1,192.44,55.55Zm.14,12.91V58.18a.19.19,0,0,1,.22-.21h.7a.19.19,0,0,1,.21.21V68.46a.19.19,0,0,1-.21.21h-.7A.19.19,0,0,1,192.58,68.46Z"/><path class="cls-1" d="M199.09,68.08a3.77,3.77,0,0,1-1.41-2.1,10.72,10.72,0,0,1-.27-2.66,10.85,10.85,0,0,1,.27-2.63,3.72,3.72,0,0,1,1.4-2.08,4.18,4.18,0,0,1,2.57-.79,4.44,4.44,0,0,1,2.61.77,3.35,3.35,0,0,1,1.39,1.91,4.12,4.12,0,0,1,.12.59v0c0,.09-.06.16-.19.19l-.68.08h0c-.1,0-.16-.06-.19-.19l-.06-.3a2.49,2.49,0,0,0-1-1.49,3.14,3.14,0,0,0-2-.61,3,3,0,0,0-1.94.62,2.69,2.69,0,0,0-1,1.63,11,11,0,0,0-.19,2.27,10.44,10.44,0,0,0,.19,2.26,2.71,2.71,0,0,0,1,1.65,3,3,0,0,0,1.94.62,3.19,3.19,0,0,0,2-.61,2.44,2.44,0,0,0,1-1.52l0-.1c0-.16.11-.22.25-.19l.66.1c.14,0,.21.11.19.24l-.08.38a3.32,3.32,0,0,1-1.39,1.94,4.51,4.51,0,0,1-2.61.76A4.21,4.21,0,0,1,199.09,68.08Z"/><path class="cls-1" d="M215.12,58.79a3.49,3.49,0,0,1,1,2.6v7.09a.19.19,0,0,1-.22.22h-.7c-.14,0-.21-.07-.21-.22v-1a.09.09,0,0,0,0-.07.07.07,0,0,0-.08,0,3.34,3.34,0,0,1-1.43,1.06,5,5,0,0,1-2,.37,4.09,4.09,0,0,1-2.49-.75,2.61,2.61,0,0,1-1-2.27,3,3,0,0,1,1.17-2.48,5.08,5.08,0,0,1,3.21-.92h2.55a.07.07,0,0,0,.08-.08v-1a2.62,2.62,0,0,0-.67-1.89,2.69,2.69,0,0,0-2.05-.7,3.24,3.24,0,0,0-1.78.45,1.82,1.82,0,0,0-.87,1.19.24.24,0,0,1-.26.19l-.74-.11c-.16,0-.22-.08-.19-.17a2.72,2.72,0,0,1,1.24-1.85,4.69,4.69,0,0,1,2.62-.7A3.86,3.86,0,0,1,215.12,58.79ZM214,67.23a2.08,2.08,0,0,0,1-1.83V63.47c0-.06,0-.08-.08-.08h-2.45A4.25,4.25,0,0,0,210,64a2.05,2.05,0,0,0-.92,1.77,1.84,1.84,0,0,0,.72,1.57,3.07,3.07,0,0,0,1.85.53A4.08,4.08,0,0,0,214,67.23Z"/><path class="cls-1" d="M220.8,68.08a3.77,3.77,0,0,1-1.41-2.1,10.21,10.21,0,0,1-.28-2.66,10.33,10.33,0,0,1,.28-2.63,3.63,3.63,0,0,1,1.4-2.08,4.16,4.16,0,0,1,2.57-.79,4.41,4.41,0,0,1,2.6.77,3.3,3.3,0,0,1,1.39,1.91,4.16,4.16,0,0,1,.13.59v0c0,.09-.06.16-.19.19l-.68.08h0c-.1,0-.17-.06-.19-.19l-.07-.3a2.49,2.49,0,0,0-1-1.49,3.11,3.11,0,0,0-1.95-.61,3,3,0,0,0-1.94.62,2.69,2.69,0,0,0-1,1.63,10.29,10.29,0,0,0-.19,2.27,9.83,9.83,0,0,0,.19,2.26,2.71,2.71,0,0,0,1,1.65,3,3,0,0,0,1.94.62,3.16,3.16,0,0,0,2-.61,2.36,2.36,0,0,0,1-1.52l0-.1c0-.16.12-.22.26-.19l.66.1a.21.21,0,0,1,.19.24l-.09.38A3.28,3.28,0,0,1,226,68.11a4.48,4.48,0,0,1-2.6.76A4.17,4.17,0,0,1,220.8,68.08Z"/><path class="cls-1" d="M230.54,55.55a1.07,1.07,0,0,1,.76-1.83,1,1,0,0,1,.77.3,1.15,1.15,0,0,1,0,1.53,1,1,0,0,1-.77.3A1,1,0,0,1,230.54,55.55Zm.15,12.91V58.18a.19.19,0,0,1,.21-.21h.7a.19.19,0,0,1,.21.21V68.46a.19.19,0,0,1-.21.21h-.7A.19.19,0,0,1,230.69,68.46Z"/><path class="cls-1" d="M237.19,68.08a3.88,3.88,0,0,1-1.45-2.1,11.3,11.3,0,0,1-.23-2.66,11,11,0,0,1,.23-2.63,3.81,3.81,0,0,1,1.44-2.09,4.6,4.6,0,0,1,5.14,0,3.77,3.77,0,0,1,1.43,2.08,6.57,6.57,0,0,1,.17,1.09c0,.41,0,.92,0,1.54s0,1.18,0,1.57a6.74,6.74,0,0,1-.17,1.09,3.75,3.75,0,0,1-1.43,2.1,4.29,4.29,0,0,1-2.58.79A4.16,4.16,0,0,1,237.19,68.08Zm4.47-.84a2.88,2.88,0,0,0,1-1.64,10.92,10.92,0,0,0,.15-2.26,12.85,12.85,0,0,0-.13-2.25,2.81,2.81,0,0,0-1-1.65,3.35,3.35,0,0,0-3.88,0,2.85,2.85,0,0,0-1,1.65,11.55,11.55,0,0,0-.15,2.25,11.6,11.6,0,0,0,.15,2.26,2.85,2.85,0,0,0,1,1.65,3.07,3.07,0,0,0,1.94.62A3,3,0,0,0,241.66,67.24ZM239,56.49a.17.17,0,0,1,0-.18l1.3-2.33a.24.24,0,0,1,.25-.15h.62a.18.18,0,0,1,.17.07.2.2,0,0,1,0,.18l-1.43,2.34a.3.3,0,0,1-.25.15h-.49A.18.18,0,0,1,239,56.49Z"/><path class="cls-1" d="M254,58.84a3.55,3.55,0,0,1,1,2.63v7c0,.15-.07.22-.21.22h-.71c-.14,0-.21-.07-.21-.22V61.69a2.83,2.83,0,0,0-.76-2,2.66,2.66,0,0,0-2-.8,2.79,2.79,0,0,0-2.06.78,2.71,2.71,0,0,0-.78,2v6.84a.2.2,0,0,1-.22.22h-.7c-.14,0-.21-.07-.21-.22V58.2a.19.19,0,0,1,.21-.21h.7a.19.19,0,0,1,.22.21v1s0,.07,0,.08,0,0,.05,0a3.06,3.06,0,0,1,1.23-1.08,4.11,4.11,0,0,1,1.77-.37A3.61,3.61,0,0,1,254,58.84Z"/><path class="cls-1" d="M265.26,68.53l-3.52-10.3,0-.09c0-.1.06-.15.19-.15h.81a.25.25,0,0,1,.25.17L265.86,67a.06.06,0,0,0,.06,0s.05,0,.07,0l2.88-8.79a.26.26,0,0,1,.26-.17l.79,0c.15,0,.21.08.17.24l-3.51,10.28a.25.25,0,0,1-.25.17h-.81A.26.26,0,0,1,265.26,68.53Z"/><path class="cls-1" d="M272.8,55.55a1.15,1.15,0,0,1,0-1.53,1,1,0,0,1,.77-.3,1.07,1.07,0,1,1,0,2.13A1,1,0,0,1,272.8,55.55ZM273,68.46V58.18a.19.19,0,0,1,.21-.21h.71a.19.19,0,0,1,.21.21V68.46a.19.19,0,0,1-.21.21h-.71A.19.19,0,0,1,273,68.46Z"/><path class="cls-1" d="M279.44,68.43a3.28,3.28,0,0,1-1.37-1,2.21,2.21,0,0,1-.49-1.4v-.28a.19.19,0,0,1,.21-.21h.66a.19.19,0,0,1,.22.21V66a1.65,1.65,0,0,0,.78,1.35,3.38,3.38,0,0,0,2,.56,3.1,3.1,0,0,0,1.93-.57,1.74,1.74,0,0,0,.74-1.43,1.29,1.29,0,0,0-.38-1,2.52,2.52,0,0,0-.9-.59c-.35-.13-.87-.31-1.56-.52a17.11,17.11,0,0,1-1.91-.68,3.24,3.24,0,0,1-1.22-.9,2.16,2.16,0,0,1-.5-1.48,2.46,2.46,0,0,1,1-2.07,4.41,4.41,0,0,1,2.7-.77,4.94,4.94,0,0,1,2,.37,3.24,3.24,0,0,1,1.34,1,2.31,2.31,0,0,1,.48,1.44v.07A.19.19,0,0,1,285,61h-.66a.19.19,0,0,1-.21-.21v-.07a1.61,1.61,0,0,0-.75-1.35,3.92,3.92,0,0,0-3.9,0,1.56,1.56,0,0,0-.72,1.35,1.31,1.31,0,0,0,.67,1.21,9.71,9.71,0,0,0,2.09.83,17,17,0,0,1,2,.68,3.68,3.68,0,0,1,1.27.9,2.2,2.2,0,0,1,.53,1.52,2.59,2.59,0,0,1-1,2.15,4.27,4.27,0,0,1-2.75.82A5.14,5.14,0,0,1,279.44,68.43Z"/><path class="cls-1" d="M295,58h.68a.19.19,0,0,1,.21.21V68.48c0,.15-.07.22-.21.22H295c-.14,0-.21-.07-.21-.22v-1a.07.07,0,0,0,0-.07s-.05,0-.07,0a2.86,2.86,0,0,1-1.2,1.06,4.05,4.05,0,0,1-1.77.36,3.76,3.76,0,0,1-2.61-.93,3.25,3.25,0,0,1-1-2.57V58.2a.19.19,0,0,1,.21-.21H289a.19.19,0,0,1,.21.21V65a2.79,2.79,0,0,0,.75,2,2.72,2.72,0,0,0,2,.77,2.82,2.82,0,0,0,2.08-.78,2.7,2.7,0,0,0,.79-2V58.2A.19.19,0,0,1,295,58Z"/><path class="cls-1" d="M306,58.79a3.49,3.49,0,0,1,1,2.6v7.09c0,.15-.07.22-.21.22h-.71c-.14,0-.21-.07-.21-.22v-1a.09.09,0,0,0,0-.07.05.05,0,0,0-.07,0,3.43,3.43,0,0,1-1.44,1.06,5,5,0,0,1-2,.37,4.09,4.09,0,0,1-2.49-.75,2.61,2.61,0,0,1-1-2.27A3,3,0,0,1,300,63.37a5.08,5.08,0,0,1,3.21-.92h2.55a.07.07,0,0,0,.08-.08v-1a2.62,2.62,0,0,0-.67-1.89,2.69,2.69,0,0,0-2.05-.7,3.24,3.24,0,0,0-1.78.45,1.82,1.82,0,0,0-.87,1.19.23.23,0,0,1-.26.19l-.74-.11c-.16,0-.22-.08-.19-.17a2.72,2.72,0,0,1,1.24-1.85,4.69,4.69,0,0,1,2.62-.7A3.86,3.86,0,0,1,306,58.79Zm-1.14,8.44a2.08,2.08,0,0,0,1-1.83V63.47c0-.06,0-.08-.08-.08h-2.45a4.25,4.25,0,0,0-2.43.63,2.05,2.05,0,0,0-.92,1.77,1.84,1.84,0,0,0,.72,1.57,3.07,3.07,0,0,0,1.85.53A4.05,4.05,0,0,0,304.88,67.23Z"/><path class="cls-1" d="M310.37,68.48V54a.19.19,0,0,1,.22-.21h.7a.19.19,0,0,1,.21.21V68.48c0,.15-.07.22-.21.22h-.7A.2.2,0,0,1,310.37,68.48Z"/></g></svg>